# xmcd CD database file
#
# Track frame offsets:
#	150
#	17300
#	29342
#	45202
#	61196
#	72860
#	86774
#	104369
#	120541
#	136624
#	145745
#	159832
#	171009
#	183367
#	201254
#	214045
#	233182
#	248174
#	260726
#	272709
#	286994
#	302937
#	315531
#
# Disc length: 4366 seconds
#
# Revision: 0
# Processed by: cddbd v1.5.1PL0 Copyright (c) Steve Scherf et al.
# Submitted via: CDex 1.51
#
DISCID=39110c17
DTITLE=Cleo Laine - A Beautiful Thing and I Am a Song
DYEAR=1900
DGENRE=Jazz
TTITLE0=All in Love is Fair
TTITLE1=Skip-A-Long Sam
TTITLE2=Send in the Clowns
TTITLE3=The Least You Can Do Is the Best You Can
TTITLE4=They Needed Each Other
TTITLE5=I Loves You Porgy
TTITLE6=Until It's Time for You to Go
TTITLE7=Life is a Wheel
TTITLE8=The Summer Knows
TTITLE9=A Beautiful Thing
TTITLE10=A Time for Farewell
TTITLE11=I'm Gonna Sit Right Down and Write Myself a Letter
TTITLE12=Early Autumn
TTITLE13=Friendly Persuasion (Thee I Love)
TTITLE14=There Is a Time (Le Temps)
TTITLE15=Day When the World Comes Alive
TTITLE16=I Am a Song
TTITLE17=It Might As Well Be Spring
TTITLE18=Music
TTITLE19=But Not For Me
TTITLE20=Talk To Me Baby
TTITLE21=Thieving Boy
TTITLE22=High Heel Sneakers
EXTD=
EXTT0=
EXTT1=
EXTT2=
EXTT3=
EXTT4=
EXTT5=
EXTT6=
EXTT7=
EXTT8=
EXTT9=
EXTT10=
EXTT11=
EXTT12=
EXTT13=
EXTT14=
EXTT15=
EXTT16=
EXTT17=
EXTT18=
EXTT19=
EXTT20=
EXTT21=
EXTT22=
PLAYORDER=
